<?xml version="1.0" encoding="utf-8"?>
<!-- Generator: Adobe Illustrator 19.0.0, SVG Export Plug-In . SVG Version: 6.00 Build 0)  -->
<svg version="1.1" id="Layer_1" xmlns="http://www.w3.org/2000/svg" xmlns:xlink="http://www.w3.org/1999/xlink" x="0px" y="0px"
	 viewBox="-200 382 30 30" style="enable-background:new -200 382 30 30;" xml:space="preserve">
<style type="text/css">
	.st0{fill:#563D7C;}
	.st1{fill:#FFFFFF;}
</style>
<rect x="-200" y="382" class="st0" width="30" height="30"/>
<path class="st1" d="M-176.9,394.7c1.3,0,1.5,2.3,0,2.3h-0.5v1.9h-1.2v-4.3H-176.9L-176.9,394.7z M-174.7,401.2
	c-1.8,4-5.3,6.6-9.8,6.6c-6,0-10.8-4.8-10.8-10.8s4.8-10.8,10.8-10.8c4.3,0,7.5,2.3,9.5,6l-8.1,4.8L-174.7,401.2z M-176.4,401.8
	l-2.6-1.3c-1.2,1.9-3.1,3.1-5.3,3.1c-3.6,0-6.5-2.9-6.5-6.5c0-3.6,2.9-6.5,6.5-6.5c2.1,0,3.9,1,5.1,2.8l2.6-1.5
	c-1.8-2.7-4.6-4.4-7.8-4.4c-5.3,0-9.6,4.3-9.6,9.6s4.3,9.6,9.6,9.6C-181,406.6-178.1,404.8-176.4,401.8z"/>
</svg>
